<svg width="32" height="24" viewBox="0 0 32 24" fill="none" xmlns="http://www.w3.org/2000/svg">
<path d="M11.957 0.94695L11.957 0.946948L11.9563 0.946453C11.8572 0.871934 11.7325 0.83888 11.6093 0.853312C11.4862 0.86775 11.3726 0.928795 11.2941 1.02492L5.28637 8.36954L5.28636 8.36954L5.28503 8.3712C5.2693 8.391 5.25526 8.41198 5.24303 8.43394H1.32563C1.20117 8.43394 1.08078 8.48161 0.991205 8.56806C0.901451 8.65469 0.85 8.77334 0.85 8.89822C0.85 9.02311 0.901451 9.14176 0.991205 9.22838C1.08078 9.31484 1.20117 9.3625 1.32563 9.3625H3.20815L5.08854 20.3947L5.08856 20.3948C5.2205 21.1656 5.63145 21.865 6.24675 22.3692C6.86194 22.8732 7.64167 23.1495 8.447 23.15H8.44709H23.5496C23.5496 23.15 23.5497 23.15 23.5497 23.15C24.3561 23.1502 25.137 22.8737 25.7529 22.369C26.369 21.8641 26.7802 21.1635 26.9115 20.3915L28.7919 9.35936H30.6744C30.7988 9.35936 30.9192 9.31169 31.0088 9.22524C31.0986 9.13861 31.15 9.01997 31.15 8.89508C31.15 8.7702 31.0986 8.65155 31.0088 8.56492C30.9192 8.47847 30.7988 8.4308 30.6744 8.4308H27.1412C27.129 8.40884 27.1149 8.38786 27.0992 8.36806L27.0992 8.36805L27.0979 8.36638L21.09 1.02478C21.051 0.977021 21.0028 0.937481 20.9484 0.908174C20.8941 0.878873 20.8346 0.860305 20.7732 0.85335C20.7119 0.846396 20.6497 0.851164 20.5901 0.867432C20.5305 0.883701 20.4746 0.911211 20.4255 0.948626C20.3764 0.986048 20.3351 1.0327 20.3042 1.0861C20.2733 1.13953 20.2534 1.19856 20.2459 1.25984C20.2385 1.32113 20.2436 1.3832 20.261 1.44245C20.2783 1.50165 20.3075 1.55666 20.3466 1.60442C20.3466 1.60444 20.3466 1.60446 20.3466 1.60448L25.9295 8.43394H6.45152L12.0377 1.60128L12.0382 1.60055C12.1163 1.50379 12.1523 1.38009 12.1367 1.2566C12.1212 1.13319 12.0559 1.02215 11.957 0.94695ZM23.5496 22.2214H8.44715H8.44709C7.8639 22.2212 7.30048 22.021 6.85718 21.6577C6.41398 21.2944 6.11985 20.792 6.02575 20.2405L4.17026 9.3625H27.8265L25.971 20.2405C25.8769 20.792 25.5828 21.2944 25.1396 21.6577C24.6963 22.021 24.1328 22.2212 23.5497 22.2214C23.5496 22.2214 23.5496 22.2214 23.5496 22.2214Z" fill="#FBFAF8" stroke="#FBFAF8" stroke-width="0.3"/>
</svg>
